<svg xmlns="http://www.w3.org/2000/svg" viewBox="0 0 240 240" role="img" aria-labelledby="title">
  <title id="title">Slovesto</title>
  <path fill="#D96A3D" d="M27 105 120 35l93 70z"/>
  <rect x="64" y="72" width="112" height="112" rx="9" fill="#FFF7EC"/>
  <path fill="#4A332A" d="M83 101h70a6 6 0 1 1 0 12H83a6 6 0 1 1 0-12m0 29h48a6 6 0 1 1 0 12H83a6 6 0 1 1 0-12"/>
  <path fill="#D96A3D" d="M22 106 120 177l98-71v96a9 9 0 0 1-9 9H31a9 9 0 0 1-9-9z"/>
  <path fill="none" stroke="#FBEFDF" stroke-linecap="round" stroke-linejoin="round" stroke-width="8" d="m23 107 97 70 97-70M23 205l72-53m122 53-72-53"/>
</svg>
